<svg width="24" height="24" viewBox="0 0 24 24" fill="none" xmlns="http://www.w3.org/2000/svg">
<g id="icon_InformationLine">
<g id="UI0_Opacity1_BaseColor">
<path d="M10.873 8.18182V6H13.123V8.18182H10.873Z" fill="white"/>
<path d="M9.74805 10.3636V11.4545H10.873V16.9091H9.74805V18H14.248V16.9091H13.123V10.3636H9.74805Z" fill="white"/>
<path fill-rule="evenodd" clip-rule="evenodd" d="M11.998 22.5C17.797 22.5 22.498 17.799 22.498 12C22.498 6.20101 17.797 1.5 11.998 1.5C6.19906 1.5 1.49805 6.20101 1.49805 12C1.49805 17.799 6.19906 22.5 11.998 22.5ZM11.998 21.375C17.1757 21.375 21.373 17.1777 21.373 12C21.373 6.82233 17.1757 2.625 11.998 2.625C6.82038 2.625 2.62305 6.82233 2.62305 12C2.62305 17.1777 6.82038 21.375 11.998 21.375Z" fill="white"/>
</g>
</g>
</svg>
