<svg width="105" height="28" viewBox="0 0 105 28" fill="none" xmlns="http://www.w3.org/2000/svg">
						<path d="M92.8041 23.0002V6.78516H97.5651C100.739 6.78516 103.108 8.80916 103.108 12.4892V13.1102C103.108 16.7902 100.739 18.7222 97.5651 18.7222H95.0581V23.0002H92.8041ZM95.0581 16.5602H97.4501C99.3821 16.5602 100.877 15.5252 100.877 13.0872V12.4892C100.877 9.68316 99.2211 8.97016 97.4501 8.97016H95.0581V16.5602Z" fill="#8A75FF" />
						<path d="M84.2016 23.0002V8.97016H80.2916V6.78516H90.3886V8.97016H86.4556V23.0002H84.2016Z" fill="#8A75FF" />
						<path d="M73.5811 23.2301C70.3841 23.2301 68.1761 20.9071 68.1761 17.5951V12.0981C68.1761 8.78609 70.3841 6.48608 73.5811 6.48608C76.8931 6.48608 79.0091 8.94709 79.0091 12.3281V12.4661H76.7551V12.3051C76.7551 10.3961 75.7431 8.67108 73.5811 8.67108C71.9941 8.67108 70.4301 9.68308 70.4301 12.0291V17.6641C70.4301 19.8951 71.8101 21.0451 73.5811 21.0451C75.9501 21.0451 76.7551 19.0441 76.7551 17.2731V17.1121H79.0091V17.2731C79.0091 20.7231 76.9621 23.2301 73.5811 23.2301Z" fill="#8A75FF" />
						<path d="M51.7006 23.0002V6.78516H60.7166V8.97016H53.9546V13.8462H58.8766V15.8472H53.9546V20.8152H60.7166V23.0002H51.7006Z" fill="#8A75FF" />
						<path d="M40.9193 23.0002V6.78516H43.1733V20.8152H49.4063V23.0002H40.9193Z" fill="#8A75FF" />
						<path d="M25.9708 23.0002L31.2378 6.78516H33.7678L38.9428 23.0002H36.5738L35.4698 19.3432H29.4438L28.3168 23.0002H25.9708ZM30.0188 17.3882H34.9178L32.5028 9.26916L30.0188 17.3882Z" fill="#8A75FF" />
						<path d="M19.6973 23.2301C16.5003 23.2301 14.2923 20.9071 14.2923 17.5951V12.0981C14.2923 8.78609 16.5003 6.48608 19.6973 6.48608C23.0093 6.48608 25.1253 8.94709 25.1253 12.3281V12.4661H22.8713V12.3051C22.8713 10.3961 21.8593 8.67108 19.6973 8.67108C18.1103 8.67108 16.5463 9.68308 16.5463 12.0291V17.6641C16.5463 19.8951 17.9263 21.0451 19.6973 21.0451C22.0663 21.0451 22.8713 19.0441 22.8713 17.2731V17.1121H25.1253V17.2731C25.1253 20.7231 23.0783 23.2301 19.6973 23.2301Z" fill="#8A75FF" />
						<path d="M6.53199 23.2761C3.21999 23.2761 1.08099 21.4821 1.08099 17.8481H3.31199C3.31199 20.2861 4.59999 21.1371 6.53199 21.1371C8.32599 21.1371 9.65999 20.2861 9.65999 18.5841C9.65999 16.8821 8.09599 16.3761 6.32499 15.8701C4.00199 15.1801 1.31099 14.4901 1.31099 11.0631C1.31099 8.14208 3.19699 6.48608 6.41699 6.48608C9.65999 6.48608 11.73 8.25708 11.73 11.7531H9.49899C9.49899 9.52208 8.32599 8.57908 6.41699 8.57908C4.59999 8.57908 3.54199 9.45308 3.54199 11.0631C3.54199 12.8801 5.26699 13.3631 7.15299 13.8921C9.42999 14.5361 11.914 15.2721 11.914 18.5381C11.914 21.5741 9.84399 23.2761 6.53199 23.2761Z" fill="#8A75FF" />
					</svg>