<svg width="24" height="24" viewBox="0 0 24 24" fill="none" xmlns="http://www.w3.org/2000/svg">
						<g opacity="0.6">
							<path d="M10.8735 8.18182V6H13.1235V8.18182H10.8735Z" fill="white" />
							<path d="M9.74854 10.3636V11.4545H10.8735V16.9091H9.74854V18H14.2485V16.9091H13.1235V10.3636H9.74854Z" fill="white" />
							<path fill-rule="evenodd" clip-rule="evenodd" d="M11.9985 22.5C17.7975 22.5 22.4985 17.799 22.4985 12C22.4985 6.20101 17.7975 1.5 11.9985 1.5C6.19954 1.5 1.49854 6.20101 1.49854 12C1.49854 17.799 6.19954 22.5 11.9985 22.5ZM11.9985 21.375C17.1762 21.375 21.3735 17.1777 21.3735 12C21.3735 6.82233 17.1762 2.625 11.9985 2.625C6.82087 2.625 2.62354 6.82233 2.62354 12C2.62354 17.1777 6.82087 21.375 11.9985 21.375Z" fill="white" />
						</g>
					</svg>