<svg width="24" height="24" viewBox="0 0 24 24" fill="none" xmlns="http://www.w3.org/2000/svg" class="flex-grow-0 flex-shrink-0 w-6 h-6 relative" preserveAspectRatio="xMidYMid meet">
						<g opacity="0.6">
							<path fill-rule="evenodd" clip-rule="evenodd" d="M3 21.75V2.25H19C20.1046 2.25 21 3.12304 21 4.2V19.8C21 20.877 20.1046 21.75 19 21.75H3ZM4.125 20.625V3.375H6.75V20.625H4.125ZM7.875 20.625V3.375H18.125C19.0915 3.375 19.875 4.14731 19.875 5.1V18.9C19.875 19.8527 19.0915 20.625 18.125 20.625H7.875ZM12.7499 16.5H14.2499V15.0056H12.7499V16.5ZM12.7499 14.2585H14.2499C14.2812 13.902 14.3951 13.5576 14.5824 13.2523C14.7698 12.947 15.0256 12.6891 15.3298 12.4988C15.6663 12.2834 15.9473 11.9924 16.1505 11.6492C16.3537 11.306 16.4733 10.9201 16.4998 10.5225C16.5088 9.72988 16.2013 8.96614 15.645 8.39934C15.0888 7.83254 14.3293 7.50911 13.5337 7.50019C12.738 7.49127 11.9714 7.7976 11.4025 8.35179C10.8336 8.90598 10.509 9.66264 10.5 10.4553V10.5225H12C12 10.1262 12.158 9.74611 12.4393 9.46587C12.7206 9.18562 13.1021 9.02818 13.4999 9.02818C13.8977 9.02818 14.2792 9.18562 14.5605 9.46587C14.8418 9.74611 14.9999 10.1262 14.9999 10.5225C14.9999 11.1793 14.5733 11.5051 14.0791 11.8826L14.0774 11.8839C13.6635 12.1256 13.3221 12.4733 13.0887 12.8909C12.8553 13.3084 12.7383 13.7806 12.7499 14.2585Z" fill="white"></path>
						</g>
					</svg>